<?xml version="1.0" encoding="UTF-8" standalone="no"?>
<!-- Created with Inkscape (http://www.inkscape.org/) -->

<svg
   width="36in"
   height="24in"
   viewBox="0 0 914.4 609.6"
   version="1.1"
   id="svg5"
   inkscape:version="1.2 (dc2aedaf03, 2022-05-15)"
   xml:space="preserve"
   sodipodi:docname="postableSpirometry.svg"
   xmlns:inkscape="http://www.inkscape.org/namespaces/inkscape"
   xmlns:sodipodi="http://sodipodi.sourceforge.net/DTD/sodipodi-0.dtd"
   xmlns="http://www.w3.org/2000/svg"
   xmlns:svg="http://www.w3.org/2000/svg"><sodipodi:namedview
     id="namedview7"
     pagecolor="#ffffff"
     bordercolor="#000000"
     borderopacity="0.25"
     inkscape:showpageshadow="2"
     inkscape:pageopacity="0.0"
     inkscape:pagecheckerboard="0"
     inkscape:deskcolor="#d1d1d1"
     inkscape:document-units="mm"
     showgrid="false"
     showguides="false"
     inkscape:zoom="0.82772562"
     inkscape:cx="449.42429"
     inkscape:cy="337.06822"
     inkscape:window-width="1600"
     inkscape:window-height="837"
     inkscape:window-x="-8"
     inkscape:window-y="-8"
     inkscape:window-maximized="1"
     inkscape:current-layer="layer1" /><defs
     id="defs2"><rect
       x="485.66818"
       y="312.53332"
       width="348.06977"
       height="117.56089"
       id="rect12198" /><marker
       id="DistanceX"
       orient="auto"
       refX="0.0"
       refY="0.0"
       style="overflow:visible"><path
         d="M 3,-3 L -3,3 M 0,-5 L  0,5"
         style="stroke:#000000; stroke-width:0.5"
         id="path11649" /></marker><pattern
       id="Hatch"
       patternUnits="userSpaceOnUse"
       width="8"
       height="8"
       x="0"
       y="0"><path
         d="M8 4 l-4,4"
         stroke="#000000"
         stroke-width="0.25"
         linecap="square"
         id="path11652" /><path
         d="M6 2 l-4,4"
         stroke="#000000"
         stroke-width="0.25"
         linecap="square"
         id="path11654" /><path
         d="M4 0 l-4,4"
         stroke="#000000"
         stroke-width="0.25"
         linecap="square"
         id="path11656" /></pattern><symbol
       id="*Model_Space" /><symbol
       id="*Paper_Space" /><symbol
       id="*Paper_Space0" /></defs><g
     inkscape:label="Layer 1"
     inkscape:groupmode="layer"
     id="layer1"><g
       inkscape:label="0"
       id="g11722"
       transform="matrix(0.26458333,0,0,0.26458333,13.344251,-3.6215297)"><path
         style="fill:none;stroke:#000000;stroke-width:2.571;stroke-linecap:round"
         d="m 706.768,77.262 v 34.016"
         id="path11664" /><path
         style="fill:none;stroke:#000000;stroke-width:2.571;stroke-linecap:round"
         d="m 694.012,77.262 v 162.52"
         id="path11666" /><path
         style="fill:none;stroke:#000000;stroke-width:2.571;stroke-linecap:round"
         d="M 694.012,239.782 H 796.059"
         id="path11668" /><path
         style="fill:none;stroke:#000000;stroke-width:2.571;stroke-linecap:round"
         d="m 796.059,77.262 v 162.52"
         id="path11670" /><path
         style="fill:none;stroke:#000000;stroke-width:2.571;stroke-linecap:round"
         d="m 732.28,88.6006 v 3.7795"
         id="path11672" /><path
         style="fill:none;stroke:#000000;stroke-width:2.571;stroke-linecap:round"
         d="M 757.791,77.262 V 96.1596"
         id="path11674" /><path
         style="fill:none;stroke:#000000;stroke-width:2.571;stroke-linecap:round"
         d="M 783.303,77.262 V 88.6006"
         id="path11676" /><path
         style="fill:none;stroke:#000000;stroke-width:2.571;stroke-linecap:round"
         d="m 757.791,77.262 h 25.512"
         id="path11678" /><path
         style="fill:none;stroke:#000000;stroke-width:2.571;stroke-linecap:round"
         d="M 732.28,92.3801 V 111.278"
         id="path11680" /><path
         style="fill:none;stroke:#000000;stroke-width:2.571;stroke-linecap:round"
         d="m 694.012,77.262 h 12.756"
         id="path11682" /><path
         style="fill:none;stroke:#000000;stroke-width:2.571;stroke-linecap:round"
         d="m 732.28,92.3801 25.511,3.7795"
         id="path11684" /><path
         style="fill:none;stroke:#000000;stroke-width:2.571;stroke-linecap:round"
         d="m 783.303,77.262 h 12.756"
         id="path11686" /><path
         style="fill:none;stroke:#000000;stroke-width:2.571;stroke-linecap:round"
         d="M 706.768,88.6006 H 732.28"
         id="path11688" /><path
         d="m 423.97342,182.23671 a 16.440945,16.440945 0 0 0 -32.88189,0 16.440945,16.440945 0 0 0 32.88189,0 z"
         style="fill:none;stroke:#000000;stroke-width:3.571;stroke-linecap:round"
         id="path11690" /><path
         style="fill:none;stroke:#000000;stroke-width:3.571;stroke-linecap:round"
         d="M 452.887,76.4099 H 7.6217"
         id="path11692" /><path
         style="fill:none;stroke:#000000;stroke-width:3.571;stroke-linecap:round"
         d="M 452.887,208.693 V 76.4099"
         id="path11694" /><path
         style="fill:none;stroke:#000000;stroke-width:3.571;stroke-linecap:round"
         d="M 7.6217,208.693 H 452.887"
         id="path11696" /><path
         style="fill:none;stroke:#000000;stroke-width:3.571;stroke-linecap:round"
         d="M 7.6217,76.4099 V 208.693"
         id="path11698" /><path
         d="m 616.99979,146.0889 a 73.70079,73.70079 0 0 0 -147.40158,0 73.70079,73.70079 0 0 0 147.40158,0 z"
         style="fill:none;stroke:#000000;stroke-width:3.571;stroke-linecap:round"
         id="path11700" /><path
         d="m 108.72877,296.42113 a 21.732284,21.732284 0 0 0 -43.464569,0 21.732285,21.732285 0 0 0 43.464569,0 z"
         style="fill:none;stroke:#000000;stroke-width:3.571;stroke-linecap:round"
         id="path11702" /><path
         d="m 160.69727,296.42113 a 73.700788,73.700788 0 0 0 -147.401573,0 73.700787,73.700787 0 0 0 147.401573,0 z"
         style="fill:none;stroke:#000000;stroke-width:3.571;stroke-linecap:round"
         id="path11704" /><path
         style="fill:none;stroke:#000000;stroke-width:3.571;stroke-linecap:round"
         d="M 349.565,224.174 H 201.143"
         id="path11706" /><path
         style="fill:none;stroke:#000000;stroke-width:3.571;stroke-linecap:round"
         d="M 349.565,326.221 V 224.174"
         id="path11708" /><path
         style="fill:none;stroke:#000000;stroke-width:3.571;stroke-linecap:round"
         d="M 201.143,326.221 H 349.565"
         id="path11710" /><path
         style="fill:none;stroke:#000000;stroke-width:3.571;stroke-linecap:round"
         d="M 201.143,224.174 V 326.221"
         id="path11712" /></g><rect
       style="font-variation-settings:normal;opacity:1;vector-effect:none;fill:none;fill-opacity:1;fill-rule:evenodd;stroke:#0000ff;stroke-width:0.264999;stroke-linecap:butt;stroke-linejoin:miter;stroke-miterlimit:4;stroke-dasharray:none;stroke-dashoffset:0;stroke-opacity:1;-inkscape-stroke:none;stop-color:#000000;stop-opacity:1"
       id="rect12142"
       width="230.78802"
       height="114.00271"
       x="5.7765379"
       y="6.073369" /><text
       xml:space="preserve"
       style="font-size:14.224px;line-height:1.1;font-family:'Bell MT';-inkscape-font-specification:'Bell MT, Normal';text-align:center;text-anchor:middle;white-space:pre;inline-size:213.738;display:inline;fill:#ff0000;fill-opacity:1;fill-rule:evenodd;stroke:#cc0000;stroke-width:0;stroke-linecap:square;stroke-dasharray:none;stroke-opacity:1"
       x="127.8604"
       y="147.3591"
       id="text12262"
       transform="translate(-31.812491,-35.649093)"><tspan
         x="127.8604"
         y="147.3591"
         id="tspan13465">POSTABLE SPIROMETRY</tspan></text><text
       xml:space="preserve"
       style="font-size:9.144px;line-height:1.1;font-family:'Bell MT';-inkscape-font-specification:'Bell MT, Normal';text-align:center;text-anchor:middle;white-space:pre;inline-size:63.502;display:inline;fill:#ff0000;fill-opacity:1;fill-rule:evenodd;stroke:#cc0000;stroke-width:0;stroke-linecap:square;stroke-dasharray:none;stroke-opacity:1"
       x="127.8604"
       y="147.3591"
       id="text22122"
       transform="translate(35.561042,-74.250358)"><tspan
         x="127.8604"
         y="147.3591"
         id="tspan13467">Scan and follow<tspan
   y="147.3591"
   id="tspan13469"> </tspan></tspan><tspan
         x="127.8604"
         y="157.4175"
         id="tspan13471">directions</tspan></text><path
       style="fill:#aa0000;fill-opacity:0.894118;stroke-width:0.999996"
       d="m 188.37555,111.58732 c -0.0313,-0.0289 -0.0569,-1.90855 -0.0569,-4.177 v -4.12446 h 4.52299 4.52297 v 4.177 4.177 h -4.46609 c -2.45634,0 -4.49169,-0.0236 -4.52297,-0.0525 z m 7.66631,-4.16387 v -2.91601 h -3.15755 -3.15756 l -0.0224,2.93668 -0.0223,2.93668 3.17992,-0.0207 3.17993,-0.0207 z m -5.07769,0 v -1.77325 h 1.92014 1.92013 v 1.77325 1.77326 h -1.92013 -1.92014 z m 7.76586,3.62532 v -0.59108 h 1.2801 1.28009 v -0.59108 -0.59109 h 1.28009 1.28009 v -0.63048 -0.6305 h -0.64005 -0.64004 v -0.59109 -0.59107 h -0.64005 -0.64004 v -1.18218 -1.18216 h -0.64005 -0.64004 v -0.59109 -0.59109 h -0.64004 -0.64006 v -0.59107 -0.59109 h 1.92014 1.92014 v 0.59109 0.59107 h -0.64005 -0.64004 v 0.59109 0.59109 h 0.64004 0.64005 v 0.59109 0.59107 h 0.64004 0.64005 v 1.18218 1.18216 h 0.64004 0.64004 v -1.77325 -1.77325 h -0.64004 -0.64004 v -3.58591 -3.585907 h 0.64004 0.64004 v 0.59107 0.59109 h 1.28009 1.28009 v 0.59109 0.59109 h 0.68271 0.68271 v -1.18218 -1.18216 h -1.28008 -1.2801 v -0.59109 -0.59109 h -1.9628 -1.96279 v 1.18218 1.18216 h -1.28009 -1.28009 v 0.59109 0.59109 h 0.64004 0.64005 v 0.591067 0.59109 h -0.64005 -0.64004 v -0.59109 -0.591067 h -0.64004 -0.64006 v -0.59109 -0.59109 h 0.64006 0.64004 v -0.59109 -0.59107 h -1.9628 -1.9628 v 0.59107 0.59109 h 0.64004 0.64004 v 0.59109 0.59109 h -0.64004 -0.64004 v 0.591067 0.59109 h -1.92014 -1.92013 v 0.59109 0.59107 h -0.64004 -0.64005 v -1.18216 -1.182157 h 1.28009 1.28009 v -0.59109 -0.59109 h 0.64004 0.64005 v -1.18216 -1.18218 h -1.28009 -1.28009 v 0.59109 0.59109 h -0.63879 -0.63879 l -0.0226,-2.38405 -0.0226,-2.38403 -0.61871,-0.0232 -0.6187,-0.0232 v -1.17871 -1.17873 h -0.68272 -0.68272 v -0.59108 -0.59108 h 1.9628 1.96281 v -0.59109 -0.59108 h 0.64004 0.64006 v 0.59108 0.59109 h 0.64004 0.64004 v 1.18216 1.18217 h -1.28008 -1.2801 v 1.81267 1.81265 h 0.64004 0.64006 v -1.22157 -1.22158 h 0.64004 0.64004 v 0.6305 0.63048 h 1.9164 1.91639 l 0.0251,0.57138 0.0251,0.57139 1.30142,0.0218 1.30143,0.0218 v -0.63254 -0.63254 h -0.64005 -0.64004 v -0.59109 -0.59108 h -1.9628 -1.9628 v -0.59108 -0.59109 h 0.64004 0.64004 v -0.59109 -0.59107 h -0.64004 -0.64004 v -0.5911 -0.59108 h 0.64004 0.64004 v -0.58763 -0.58763 l -0.6187,-0.0232 -0.61872,-0.0232 -0.0251,-0.57138 -0.0251,-0.57138 h 0.64379 0.64378 v 0.5944 0.5944 l 0.66137,-0.023 0.66138,-0.023 0.0229,-1.79639 0.023,-1.79636 0.6171,0.0232 0.61709,0.0232 0.0251,0.57139 0.0251,0.57138 h 0.6363 0.63631 v -1.18218 -1.18216 h -0.64005 -0.64005 v -0.59109 -0.59108 h -0.64004 -0.64004 v -1.77326 -1.77325 h 0.64004 0.64004 v 1.18217 1.18217 h 1.2801 1.28009 v -0.59109 -0.59108 h 0.64004 0.64005 v 0.59108 0.59109 h 0.64004 0.64004 v 0.59108 0.59109 h 0.68271 0.68272 v -1.18217 -1.18217 h 0.59363 0.59363 l 0.0251,0.57138 0.0251,0.57139 0.66138,0.023 0.66137,0.0229 v -0.5944 -0.59439 h 0.64005 0.64004 v 0.59108 0.59108 h 0.64004 0.64004 v -0.59108 -0.59108 h 1.28011 1.28008 v 0.59108 0.59108 h -0.64004 -0.64004 v 0.59109 0.59108 h 1.28008 1.28008 v 1.77325 1.77326 h -0.64004 -0.64004 v 0.59108 0.59109 h -1.28008 -1.28011 v -1.18217 -1.18217 h -0.64004 -0.64004 v 0.59108 0.59109 h -0.64004 -0.64005 v -1.18217 -1.18217 h -0.68271 -0.68272 v 1.18217 1.18217 h -0.59363 -0.59363 l -0.0251,-0.57139 -0.0251,-0.57138 -0.66138,-0.023 -0.66138,-0.023 v 0.59439 0.5944 h 0.64004 0.64005 v 0.59109 0.59109 h -0.64005 -0.64004 v -0.59109 -0.59109 h -0.64004 -0.64004 v 0.59109 0.59109 h -0.64005 -0.64004 v 0.63048 0.63049 h -0.64005 -0.64004 v -0.63049 -0.63048 h -0.64005 -0.64005 v 1.81265 1.81267 h -0.64004 -0.64004 v -0.5911 -0.59108 h -0.68272 -0.68271 v 0.59108 0.5911 h 0.64004 0.64005 v 0.59107 0.59108 h 1.32276 1.32276 v 0.5911 0.59108 h 0.64004 0.64005 v -1.18218 -1.18215 h 0.64004 0.64005 v -1.77326 -1.77326 h 0.64004 0.64004 v 1.77326 1.77326 h -0.64004 -0.64004 v 1.18215 1.18218 h 0.64004 0.64004 v -0.59108 -0.5911 h 0.68271 0.68272 v -0.59108 -0.59107 h 1.92013 1.92013 v 0.59107 0.59108 h -1.32498 -1.32497 l 0.0236,1.20187 0.0236,1.20188 1.30142,0.0218 1.30142,0.0218 v 1.18013 1.18011 h 0.64004 0.64004 v -0.59108 -0.59109 h 1.2801 1.28009 v 1.77325 1.77326 h 1.32276 1.32275 v -0.59109 -0.59108 h 1.92013 1.92014 v -0.59109 -0.59108 h -2.56018 -2.56018 v -0.58898 -0.58897 l 1.25876,-0.0218 1.25875,-0.0218 v -0.59109 -0.59109 l -0.61871,-0.0232 -0.61871,-0.0232 v -1.17873 -1.17871 h 1.28009 1.28008 v 0.59109 0.59109 h 0.64005 0.64005 v 0.59107 0.59109 h -0.64005 -0.64005 v 0.63049 0.63049 h 0.64005 0.64005 v 0.59109 0.59107 h 0.64004 0.64004 v -0.63048 -0.6305 h -0.64004 -0.64004 v -0.55167 -0.55167 h 1.28008 1.28009 v 1.77325 1.77325 h 1.32276 1.32276 v 1.18216 1.18218 h -0.63994 -0.64005 v -0.59109 -0.59109 h -1.32275 -1.32277 v 0.59109 0.59109 h -1.28008 -1.28009 v -0.59109 -0.59109 h -0.64005 -0.64004 v 0.59109 0.59109 h -0.64004 -0.64005 v 0.591077 0.59108 h 1.92013 1.92014 v 0.6305 0.63048 h 0.64004 0.64004 v 0.59109 0.59108 h 0.64005 0.64004 v 0.59108 0.59109 h -1.28009 -1.28008 v 0.59109 0.59108 h 0.64004 0.64004 v 0.59108 0.59109 h 0.68272 0.68271 v -1.18217 -1.18217 h 1.28009 1.28009 v 0.59109 0.59108 h -0.68271 -0.68272 v 1.76981 1.7698 l -0.6187,0.0232 -0.61871,0.0232 -0.0236,1.20528 -0.0236,1.20528 -0.61647,-0.0232 -0.61646,-0.0232 -0.0249,-0.61079 -0.0249,-0.61079 h -0.63646 -0.63645 v 0.63049 0.63049 h -1.28009 -1.28009 v -0.59109 -0.59108 h 0.64005 0.64004 v -0.6305 -0.63048 h -1.27786 -1.27787 l -0.0236,1.20187 -0.0236,1.20188 -0.61872,0.0232 -0.6187,0.0232 v -2.40719 -2.4072 h -1.32276 -1.32276 v 0.59108 0.59109 h 0.64004 0.64006 v 1.81266 1.81266 h -1.2801 -1.28009 v -0.59109 -0.59109 h 0.64005 0.64004 v -0.63048 -0.6305 h -0.64004 -0.64005 v -1.18216 -1.18217 h -0.64004 -0.64004 v 0.59108 0.59109 h -0.64005 -0.64005 v -0.59109 -0.59108 h -0.64004 -0.64004 v -0.59108 -0.59109 h 1.28008 1.2801 v -0.59108 -0.59109 h -1.9628 -1.9628 v 1.77326 1.77325 h -0.64365 -0.64363 l 0.0249,0.61078 0.025,0.61079 0.61872,0.0232 0.6187,0.0232 v 1.18218 1.18215 l -0.6187,-0.0232 -0.61872,-0.0232 -0.025,-0.61079 -0.0249,-0.61079 h -0.63645 -0.63645 v 0.6305 0.63048 h -2.56018 -2.56018 z m 21.93218,-3.62532 v -0.59107 h -1.92012 -1.92014 v 0.59107 0.59109 h 1.92014 1.92012 z m -7.76586,-1.18216 v -0.59109 h -0.64004 -0.64005 v 0.59109 0.59109 h 0.64005 0.64004 z m 6.48578,-2.40522 v -1.81413 l -1.94146,0.0211 -1.94148,0.0211 -0.0229,1.79295 -0.023,1.79296 h 1.96441 1.9644 z m -2.56018,0.0443 v -0.59454 h 0.64378 0.64379 l -0.0251,0.57139 -0.0251,0.57138 -0.61872,0.0232 -0.61871,0.0232 z m -3.9256,-0.003 v -0.59108 h 0.64005 0.64004 v -0.6305 -0.63048 h -0.64004 -0.64005 v 0.63048 0.6305 h -0.64004 -0.64005 v 0.59108 0.5911 h 0.64005 0.64004 z m -3.84027,-1.81265 v -1.22157 h -1.28008 -1.2801 v -0.59109 -0.591087 h -0.68492 -0.68494 l 0.0236,1.201867 0.0236,1.20188 0.6187,0.0232 0.61872,0.0232 v 0.53509 c 0,0.2943 0.0256,0.55874 0.0569,0.58763 0.0313,0.0289 0.62654,0.0525 1.32277,0.0525 h 1.26586 v -1.22157 z m 2.56018,-0.59109 v -0.63048 h 1.96281 1.9628 v -0.59109 -0.591087 h -1.32276 -1.32276 v -1.77325 -1.77325 h -0.64004 -0.64005 v 0.59107 0.59109 h -0.64004 -0.64006 v -0.59109 -0.59107 h -0.63645 -0.63645 l -0.025,-0.61079 -0.0249,-0.61078 h -0.64004 -0.64004 v 0.59107 0.59109 l 0.66138,0.0229 0.66138,0.0231 v 0.58777 0.58777 h 0.64004 0.64004 v 0.59108 0.59108 h 0.64004 0.64004 v 0.59109 0.59109 h -0.64004 -0.64004 v 1.221567 1.22157 h 0.64004 0.64004 z m -15.53173,-2.403737 v -0.59109 h -0.64005 -0.64004 v 0.59109 0.59108 h 0.64004 0.64005 z m 25.85778,-1.18217 v -0.59109 h -0.64006 -0.64004 v 0.59109 0.59108 h 0.64004 0.64006 z m -24.5777,-2.40719 v -0.63395 l -0.6187,0.0232 -0.61872,0.0232 -0.025,0.61079 -0.0249,0.61078 h 0.64364 0.64363 z m 7.76587,-1.17872 v -0.63049 h -0.64004 -0.64004 v -0.59109 -0.59108 h -0.64005 -0.64004 v 0.6305 0.63048 h 0.64004 0.64005 v 0.59109 0.59107 h 0.64004 0.64004 z m -11.60613,-4.76809 v -0.59107 h -0.64004 -0.64005 v 0.59107 0.59109 h 0.64005 0.64004 z m 10.32605,-4.80748 v -0.59109 h 0.64004 0.64004 v -1.18216 -1.18217 h -0.64004 -0.64004 v -0.59108 -0.59109 h -0.64005 -0.64004 v 2.36434 2.36434 h 0.64004 0.64005 z m 10.32604,-0.59109 v -1.18216 h -1.28009 -1.28009 v 0.59109 0.59107 h 0.64005 0.64004 v 0.59109 0.59109 h 0.64005 0.64004 z m -3.84028,-2.36433 v -1.18217 h -0.64004 -0.64004 v 1.18217 1.18217 h 0.64004 0.64004 z m -1.28008,29.278367 v -0.59108 h 0.64004 0.64004 v 0.59108 0.5911 h -0.64004 -0.64004 z m -1.28008,-1.22157 v -0.55168 h 0.64004 0.64004 v 0.55168 0.55169 h -0.64004 -0.64004 z m 16.81182,0 v -0.55168 h 0.64004 0.64005 v 0.55168 0.55169 h -0.64005 -0.64004 z m -18.09192,-1.22158 v -0.59107 h 0.59738 0.59738 v 0.59107 0.59109 h -0.59738 -0.59738 z m -18.17725,-8.945067 v -2.36434 h 0.64004 0.64005 v 0.59109 0.59108 h 0.64005 0.64004 v 0.59109 0.59108 h -0.64004 -0.64005 v 1.182177 1.18216 h -0.64005 -0.64004 z m 7.78347,1.792947 0.0251,-0.57138 0.61872,-0.0232 0.6187,-0.0232 v 0.59453 0.59454 h -0.64378 -0.64379 z m 25.85778,0 0.0251,-0.57138 h 1.92014 1.92012 l 0.0251,0.57138 0.0251,0.57139 h -1.97029 -1.97028 z m 2.62792,-5.927087 v -0.59454 h 0.64378 0.64379 l -0.0251,0.57138 -0.0251,0.57139 -0.61872,0.0232 -0.61871,0.0232 z m -36.25157,-2.42689 0.0251,-0.57138 0.61871,-0.0232 0.61871,-0.0232 v 0.59453 0.59454 h -0.64379 -0.64378 z m 23.28001,-0.0198 v -0.59108 h 0.64005 0.64004 v -0.59109 -0.59108 h 0.64005 0.64004 v -1.18217 -1.18216 h -1.28009 -1.28009 v -0.59109 -0.59109 h -0.64004 -0.64006 v -0.59108 -0.59108 h 0.64006 0.64004 v 0.59108 0.59108 h 1.28009 1.28009 v 0.59109 0.59109 h 1.9628 1.9628 v -0.59109 -0.59109 h 1.28009 1.28008 v -0.59108 -0.59108 h 1.92014 1.92014 v 1.18216 1.18218 h -1.2801 -1.28008 v -0.59109 -0.59109 h -0.64006 -0.64004 v 1.18218 1.18216 h 0.64004 0.64006 v 0.59109 0.59108 h -0.64006 -0.64004 v -0.59108 -0.59109 h -2.60284 -2.60284 v 0.59109 0.59108 h -0.64004 -0.64005 v 0.59108 0.59109 h 0.64005 0.64004 v 0.59108 0.5911 h -1.92013 -1.92014 z m 11.69148,0 v -0.59108 h 0.64004 0.64004 v -0.59109 -0.59108 h 0.64004 0.64005 v 1.18217 1.18218 h -1.28009 -1.28008 z m -16.81184,-5.31976 v -1.18216 h 1.28384 1.28383 l -0.0251,0.57138 -0.0251,0.57139 -0.66138,0.023 -0.66138,0.023 v 0.58776 0.58777 h -0.59736 -0.59738 z m -18.12035,-0.0525 c -0.0313,-0.0289 -0.0569,-0.29488 -0.0569,-0.59108 v -0.53855 h 0.64004 0.64005 v 0.59109 0.59108 h -0.58315 c -0.32073,0 -0.60876,-0.0236 -0.64004,-0.0525 z m 27.16632,-0.53644 v -0.59319 h 1.28382 1.28383 l -0.0251,0.57138 -0.0251,0.57139 -1.25876,0.0218 -1.25876,0.0218 z m -27.20263,-6.01147 0.022,-4.15729 4.50165,-0.0205 4.50164,-0.0205 v 4.17768 4.1777 h -4.52374 -4.52373 z m 7.70262,0.0198 v -2.91602 l -3.17889,-0.0207 -3.17888,-0.0207 v 2.90384 c 0,1.59711 0.0261,2.9279 0.0579,2.95734 0.0318,0.0294 1.46236,0.0442 3.17888,0.0328 l 3.12096,-0.0207 z m -5.07769,0 v -1.77325 h 1.92014 1.92013 v 1.77325 1.77325 h -1.92013 -1.92014 z m 25.85778,-0.0401 v -4.17768 l 4.50164,0.0205 4.50165,0.0205 0.0221,4.15729 0.022,4.1573 h -4.52373 -4.52373 z m 7.66024,0.0194 0.0223,-2.93668 -3.17992,0.0207 -3.17993,0.0207 -0.0225,2.83682 c -0.0123,1.56025 -0.003,2.88175 0.0191,2.93669 0.0326,0.0786 0.70879,0.0955 3.17999,0.0793 l 3.13849,-0.0207 z m -5.10006,0.0207 v -1.77325 h 1.92012 1.92014 v 1.77325 1.77325 h -1.92014 -1.92012 z m -18.09191,-3.03424 v -1.18217 h 0.64004 0.64005 v 1.18217 1.18217 h -0.64005 -0.64004 z m 6.46818,0.6108 -0.0251,-0.57139 -1.30512,-0.0218 -1.30511,-0.0218 0.0251,-0.5693 0.0251,-0.56932 h 1.92012 1.92014 l 0.0236,1.16247 0.0237,1.16248 h -0.6386 -0.63858 z m 6.41804,0.0197 v -0.55168 h 0.64005 0.64004 v 0.55168 0.55168 h -0.64004 -0.64005 z m -3.84028,-1.22157 v -0.59109 h 1.2801 1.28009 v 0.59109 0.59109 h -1.28009 -1.2801 z"
       id="path12356" /></g></svg>
